<mxfile host="Electron" agent="Mozilla/5.0 (Windows NT 10.0; Win64; x64) AppleWebKit/537.36 (KHTML, like Gecko) draw.io/24.7.17 Chrome/128.0.6613.36 Electron/32.0.1 Safari/537.36" version="24.7.17">
  <diagram name="Page-1" id="SLMjs8iJdiD4GJ3RGfW1">
    <mxGraphModel dx="2068" dy="1118" grid="1" gridSize="10" guides="1" tooltips="1" connect="1" arrows="1" fold="1" page="1" pageScale="1" pageWidth="850" pageHeight="1100" math="0" shadow="0">
      <root>
        <mxCell id="0" />
        <mxCell id="1" parent="0" />
        <mxCell id="IJJYvdCSxePvmy5cO1BH-9" value="" style="group" vertex="1" connectable="0" parent="1">
          <mxGeometry x="250" y="20" width="1222" height="1589" as="geometry" />
        </mxCell>
        <mxCell id="IJJYvdCSxePvmy5cO1BH-8" value="" style="group;shadow=1;strokeColor=#000000;container=0;" vertex="1" connectable="0" parent="IJJYvdCSxePvmy5cO1BH-9">
          <mxGeometry width="1222" height="1589" as="geometry" />
        </mxCell>
        <mxCell id="bRMNb42BUXSf3Dn9afHM-68" style="edgeStyle=orthogonalEdgeStyle;rounded=0;orthogonalLoop=1;jettySize=auto;html=1;exitX=0.5;exitY=1;exitDx=0;exitDy=0;shadow=1;strokeColor=#000000;" parent="IJJYvdCSxePvmy5cO1BH-9" source="bRMNb42BUXSf3Dn9afHM-6" target="bRMNb42BUXSf3Dn9afHM-7" edge="1">
          <mxGeometry relative="1" as="geometry" />
        </mxCell>
        <mxCell id="bRMNb42BUXSf3Dn9afHM-99" style="edgeStyle=orthogonalEdgeStyle;rounded=0;orthogonalLoop=1;jettySize=auto;html=1;exitX=1;exitY=0.5;exitDx=0;exitDy=0;entryX=0.5;entryY=0;entryDx=0;entryDy=0;shadow=1;strokeColor=#000000;" parent="IJJYvdCSxePvmy5cO1BH-9" source="bRMNb42BUXSf3Dn9afHM-7" edge="1" target="bRMNb42BUXSf3Dn9afHM-102">
          <mxGeometry relative="1" as="geometry">
            <mxPoint x="1030.0000000000002" y="706" as="targetPoint" />
          </mxGeometry>
        </mxCell>
        <mxCell id="bRMNb42BUXSf3Dn9afHM-101" value="Tidak" style="edgeLabel;html=1;align=center;verticalAlign=middle;resizable=0;points=[];shadow=1;strokeColor=#000000;container=0;" parent="bRMNb42BUXSf3Dn9afHM-99" vertex="1" connectable="0">
          <mxGeometry x="-0.0738" y="2" relative="1" as="geometry">
            <mxPoint as="offset" />
          </mxGeometry>
        </mxCell>
        <mxCell id="bRMNb42BUXSf3Dn9afHM-7" value="Login Berhasil?" style="rhombus;strokeWidth=2;whiteSpace=wrap;shadow=1;strokeColor=#000000;container=0;" parent="IJJYvdCSxePvmy5cO1BH-9" vertex="1">
          <mxGeometry x="520.5" y="600" width="154" height="154" as="geometry" />
        </mxCell>
        <mxCell id="bRMNb42BUXSf3Dn9afHM-71" style="edgeStyle=orthogonalEdgeStyle;rounded=0;orthogonalLoop=1;jettySize=auto;html=1;exitX=0;exitY=0.5;exitDx=0;exitDy=0;entryX=0.5;entryY=0;entryDx=0;entryDy=0;shadow=1;strokeColor=#000000;" parent="IJJYvdCSxePvmy5cO1BH-9" source="bRMNb42BUXSf3Dn9afHM-8" target="bRMNb42BUXSf3Dn9afHM-9" edge="1">
          <mxGeometry relative="1" as="geometry" />
        </mxCell>
        <mxCell id="bRMNb42BUXSf3Dn9afHM-8" value="Role" style="rhombus;strokeWidth=2;whiteSpace=wrap;shadow=1;strokeColor=#000000;container=0;" parent="IJJYvdCSxePvmy5cO1BH-9" vertex="1">
          <mxGeometry x="558" y="870" width="79" height="79" as="geometry" />
        </mxCell>
        <mxCell id="bRMNb42BUXSf3Dn9afHM-78" style="edgeStyle=orthogonalEdgeStyle;rounded=0;orthogonalLoop=1;jettySize=auto;html=1;exitX=0.5;exitY=1;exitDx=0;exitDy=0;entryX=0.5;entryY=0;entryDx=0;entryDy=0;shadow=1;strokeColor=#000000;" parent="IJJYvdCSxePvmy5cO1BH-9" source="bRMNb42BUXSf3Dn9afHM-9" target="bRMNb42BUXSf3Dn9afHM-14" edge="1">
          <mxGeometry relative="1" as="geometry" />
        </mxCell>
        <mxCell id="bRMNb42BUXSf3Dn9afHM-79" style="edgeStyle=orthogonalEdgeStyle;rounded=0;orthogonalLoop=1;jettySize=auto;html=1;exitX=0.5;exitY=1;exitDx=0;exitDy=0;entryX=0.5;entryY=0;entryDx=0;entryDy=0;shadow=1;strokeColor=#000000;" parent="IJJYvdCSxePvmy5cO1BH-9" source="bRMNb42BUXSf3Dn9afHM-9" target="bRMNb42BUXSf3Dn9afHM-13" edge="1">
          <mxGeometry relative="1" as="geometry" />
        </mxCell>
        <mxCell id="bRMNb42BUXSf3Dn9afHM-80" style="edgeStyle=orthogonalEdgeStyle;rounded=0;orthogonalLoop=1;jettySize=auto;html=1;exitX=0.5;exitY=1;exitDx=0;exitDy=0;entryX=0.5;entryY=0;entryDx=0;entryDy=0;shadow=1;strokeColor=#000000;" parent="IJJYvdCSxePvmy5cO1BH-9" source="bRMNb42BUXSf3Dn9afHM-9" target="bRMNb42BUXSf3Dn9afHM-12" edge="1">
          <mxGeometry relative="1" as="geometry" />
        </mxCell>
        <mxCell id="bRMNb42BUXSf3Dn9afHM-81" style="edgeStyle=orthogonalEdgeStyle;rounded=0;orthogonalLoop=1;jettySize=auto;html=1;exitX=0.5;exitY=1;exitDx=0;exitDy=0;entryX=0.5;entryY=0;entryDx=0;entryDy=0;shadow=1;strokeColor=#000000;" parent="IJJYvdCSxePvmy5cO1BH-9" source="bRMNb42BUXSf3Dn9afHM-9" target="bRMNb42BUXSf3Dn9afHM-11" edge="1">
          <mxGeometry relative="1" as="geometry" />
        </mxCell>
        <mxCell id="bRMNb42BUXSf3Dn9afHM-9" value="Admin" style="whiteSpace=wrap;strokeWidth=2;shadow=1;strokeColor=#000000;container=0;" parent="IJJYvdCSxePvmy5cO1BH-9" vertex="1">
          <mxGeometry x="122" y="959" width="147" height="49" as="geometry" />
        </mxCell>
        <mxCell id="bRMNb42BUXSf3Dn9afHM-82" style="edgeStyle=orthogonalEdgeStyle;rounded=0;orthogonalLoop=1;jettySize=auto;html=1;exitX=0.5;exitY=1;exitDx=0;exitDy=0;entryX=0.5;entryY=0;entryDx=0;entryDy=0;shadow=1;strokeColor=#000000;" parent="IJJYvdCSxePvmy5cO1BH-9" source="bRMNb42BUXSf3Dn9afHM-10" target="bRMNb42BUXSf3Dn9afHM-16" edge="1">
          <mxGeometry relative="1" as="geometry" />
        </mxCell>
        <mxCell id="IJJYvdCSxePvmy5cO1BH-5" style="edgeStyle=orthogonalEdgeStyle;rounded=0;orthogonalLoop=1;jettySize=auto;html=1;exitX=0.5;exitY=1;exitDx=0;exitDy=0;shadow=1;strokeColor=#000000;" edge="1" parent="IJJYvdCSxePvmy5cO1BH-9" source="bRMNb42BUXSf3Dn9afHM-10" target="bRMNb42BUXSf3Dn9afHM-22">
          <mxGeometry relative="1" as="geometry" />
        </mxCell>
        <mxCell id="bRMNb42BUXSf3Dn9afHM-10" value="User" style="whiteSpace=wrap;strokeWidth=2;shadow=1;strokeColor=#000000;container=0;" parent="IJJYvdCSxePvmy5cO1BH-9" vertex="1">
          <mxGeometry x="958" y="959" width="135" height="49" as="geometry" />
        </mxCell>
        <mxCell id="bRMNb42BUXSf3Dn9afHM-86" style="edgeStyle=orthogonalEdgeStyle;rounded=0;orthogonalLoop=1;jettySize=auto;html=1;exitX=0.5;exitY=1;exitDx=0;exitDy=0;entryX=0.5;entryY=0;entryDx=0;entryDy=0;shadow=1;strokeColor=#000000;" parent="IJJYvdCSxePvmy5cO1BH-9" source="bRMNb42BUXSf3Dn9afHM-11" target="bRMNb42BUXSf3Dn9afHM-17" edge="1">
          <mxGeometry relative="1" as="geometry" />
        </mxCell>
        <mxCell id="bRMNb42BUXSf3Dn9afHM-11" value="Tambah Donasi" style="whiteSpace=wrap;strokeWidth=2;shadow=1;strokeColor=#000000;container=0;" parent="IJJYvdCSxePvmy5cO1BH-9" vertex="1">
          <mxGeometry x="45" y="1107" width="167" height="49" as="geometry" />
        </mxCell>
        <mxCell id="bRMNb42BUXSf3Dn9afHM-12" value="Lihat Donasi" style="whiteSpace=wrap;strokeWidth=2;shadow=1;strokeColor=#000000;container=0;" parent="IJJYvdCSxePvmy5cO1BH-9" vertex="1">
          <mxGeometry x="304.5" y="1107" width="148" height="49" as="geometry" />
        </mxCell>
        <mxCell id="bRMNb42BUXSf3Dn9afHM-84" style="edgeStyle=orthogonalEdgeStyle;rounded=0;orthogonalLoop=1;jettySize=auto;html=1;exitX=0.5;exitY=1;exitDx=0;exitDy=0;entryX=0.5;entryY=0;entryDx=0;entryDy=0;shadow=1;strokeColor=#000000;" parent="IJJYvdCSxePvmy5cO1BH-9" source="bRMNb42BUXSf3Dn9afHM-14" target="bRMNb42BUXSf3Dn9afHM-21" edge="1">
          <mxGeometry relative="1" as="geometry" />
        </mxCell>
        <mxCell id="bRMNb42BUXSf3Dn9afHM-14" value="Keluar" style="whiteSpace=wrap;strokeWidth=2;shadow=1;strokeColor=#000000;container=0;" parent="IJJYvdCSxePvmy5cO1BH-9" vertex="1">
          <mxGeometry x="694" y="1107" width="106" height="49" as="geometry" />
        </mxCell>
        <mxCell id="bRMNb42BUXSf3Dn9afHM-85" style="edgeStyle=orthogonalEdgeStyle;rounded=0;orthogonalLoop=1;jettySize=auto;html=1;exitX=0.5;exitY=1;exitDx=0;exitDy=0;entryX=0.5;entryY=0;entryDx=0;entryDy=0;shadow=1;strokeColor=#000000;" parent="IJJYvdCSxePvmy5cO1BH-9" source="bRMNb42BUXSf3Dn9afHM-16" target="bRMNb42BUXSf3Dn9afHM-21" edge="1">
          <mxGeometry relative="1" as="geometry" />
        </mxCell>
        <mxCell id="bRMNb42BUXSf3Dn9afHM-16" value="Keluar" style="whiteSpace=wrap;strokeWidth=2;shadow=1;strokeColor=#000000;container=0;" parent="IJJYvdCSxePvmy5cO1BH-9" vertex="1">
          <mxGeometry x="860" y="1107" width="106" height="49" as="geometry" />
        </mxCell>
        <mxCell id="bRMNb42BUXSf3Dn9afHM-17" value="Input Nama Donatur &amp; Jumlah Donasi" style="whiteSpace=wrap;strokeWidth=2;shadow=1;strokeColor=#000000;container=0;" parent="IJJYvdCSxePvmy5cO1BH-9" vertex="1">
          <mxGeometry y="1222" width="257" height="45" as="geometry" />
        </mxCell>
        <mxCell id="bRMNb42BUXSf3Dn9afHM-19" value="Lihat Daftar Donasi" style="whiteSpace=wrap;strokeWidth=2;shadow=1;strokeColor=#000000;container=0;" parent="IJJYvdCSxePvmy5cO1BH-9" vertex="1">
          <mxGeometry x="280" y="1220" width="197" height="49" as="geometry" />
        </mxCell>
        <mxCell id="bRMNb42BUXSf3Dn9afHM-21" value="Akhiri Program" style="whiteSpace=wrap;strokeWidth=2;shadow=1;strokeColor=#000000;container=0;" parent="IJJYvdCSxePvmy5cO1BH-9" vertex="1">
          <mxGeometry x="750" y="1269" width="166" height="49" as="geometry" />
        </mxCell>
        <mxCell id="bRMNb42BUXSf3Dn9afHM-37" value="Ya" style="curved=1;startArrow=none;endArrow=block;exitX=0.5;exitY=1;entryX=0.5;entryY=0;rounded=0;shadow=1;strokeColor=#000000;" parent="IJJYvdCSxePvmy5cO1BH-9" source="bRMNb42BUXSf3Dn9afHM-7" target="bRMNb42BUXSf3Dn9afHM-8" edge="1">
          <mxGeometry relative="1" as="geometry">
            <Array as="points" />
          </mxGeometry>
        </mxCell>
        <mxCell id="bRMNb42BUXSf3Dn9afHM-49" value="" style="curved=1;startArrow=none;endArrow=block;exitX=0.5;exitY=0.99;entryX=0.5;entryY=0.01;rounded=0;shadow=1;strokeColor=#000000;" parent="IJJYvdCSxePvmy5cO1BH-9" source="bRMNb42BUXSf3Dn9afHM-12" target="bRMNb42BUXSf3Dn9afHM-19" edge="1">
          <mxGeometry relative="1" as="geometry">
            <Array as="points" />
          </mxGeometry>
        </mxCell>
        <mxCell id="bRMNb42BUXSf3Dn9afHM-54" value="" style="curved=1;startArrow=none;endArrow=block;exitX=0.5;exitY=1;entryX=0.5;entryY=0;rounded=0;shadow=1;strokeColor=#000000;" parent="IJJYvdCSxePvmy5cO1BH-9" source="bRMNb42BUXSf3Dn9afHM-19" target="bRMNb42BUXSf3Dn9afHM-23" edge="1">
          <mxGeometry relative="1" as="geometry">
            <Array as="points" />
          </mxGeometry>
        </mxCell>
        <mxCell id="bRMNb42BUXSf3Dn9afHM-74" style="edgeStyle=orthogonalEdgeStyle;rounded=0;orthogonalLoop=1;jettySize=auto;html=1;exitX=1;exitY=0.5;exitDx=0;exitDy=0;entryX=0.445;entryY=0.057;entryDx=0;entryDy=0;entryPerimeter=0;shadow=1;strokeColor=#000000;" parent="IJJYvdCSxePvmy5cO1BH-9" source="bRMNb42BUXSf3Dn9afHM-8" target="bRMNb42BUXSf3Dn9afHM-10" edge="1">
          <mxGeometry relative="1" as="geometry" />
        </mxCell>
        <mxCell id="bRMNb42BUXSf3Dn9afHM-102" value="Kembali Login" style="whiteSpace=wrap;strokeWidth=2;shadow=1;strokeColor=#000000;container=0;" parent="IJJYvdCSxePvmy5cO1BH-9" vertex="1">
          <mxGeometry x="680" y="790" width="98" height="49" as="geometry" />
        </mxCell>
        <mxCell id="bRMNb42BUXSf3Dn9afHM-22" value="Lihat Daftar Donasi" style="whiteSpace=wrap;strokeWidth=2;shadow=1;strokeColor=#000000;container=0;" parent="IJJYvdCSxePvmy5cO1BH-9" vertex="1">
          <mxGeometry x="1025" y="1107" width="197" height="49" as="geometry" />
        </mxCell>
        <mxCell id="bRMNb42BUXSf3Dn9afHM-24" value="Tampilkan Donasi" style="whiteSpace=wrap;strokeWidth=2;shadow=1;strokeColor=#000000;container=0;" parent="IJJYvdCSxePvmy5cO1BH-9" vertex="1">
          <mxGeometry x="190" y="1540" width="184" height="49" as="geometry" />
        </mxCell>
        <mxCell id="bRMNb42BUXSf3Dn9afHM-25" value="Tidak Ada Donasi" style="whiteSpace=wrap;strokeWidth=2;shadow=1;strokeColor=#000000;container=0;" parent="IJJYvdCSxePvmy5cO1BH-9" vertex="1">
          <mxGeometry x="396.5" y="1540" width="181" height="49" as="geometry" />
        </mxCell>
        <mxCell id="bRMNb42BUXSf3Dn9afHM-91" style="edgeStyle=orthogonalEdgeStyle;rounded=0;orthogonalLoop=1;jettySize=auto;html=1;exitX=0.5;exitY=1;exitDx=0;exitDy=0;entryX=0.5;entryY=0;entryDx=0;entryDy=0;shadow=1;strokeColor=#000000;" parent="IJJYvdCSxePvmy5cO1BH-9" source="bRMNb42BUXSf3Dn9afHM-23" target="bRMNb42BUXSf3Dn9afHM-24" edge="1">
          <mxGeometry relative="1" as="geometry" />
        </mxCell>
        <mxCell id="bRMNb42BUXSf3Dn9afHM-93" value="YA" style="edgeLabel;html=1;align=center;verticalAlign=middle;resizable=0;points=[];shadow=1;strokeColor=#000000;container=0;" parent="bRMNb42BUXSf3Dn9afHM-91" vertex="1" connectable="0">
          <mxGeometry x="-0.0574" y="2" relative="1" as="geometry">
            <mxPoint as="offset" />
          </mxGeometry>
        </mxCell>
        <mxCell id="bRMNb42BUXSf3Dn9afHM-92" style="edgeStyle=orthogonalEdgeStyle;rounded=0;orthogonalLoop=1;jettySize=auto;html=1;entryX=0.5;entryY=0;entryDx=0;entryDy=0;shadow=1;strokeColor=#000000;" parent="IJJYvdCSxePvmy5cO1BH-9" source="bRMNb42BUXSf3Dn9afHM-23" target="bRMNb42BUXSf3Dn9afHM-25" edge="1">
          <mxGeometry relative="1" as="geometry" />
        </mxCell>
        <mxCell id="bRMNb42BUXSf3Dn9afHM-95" value="TIDAK" style="edgeLabel;html=1;align=center;verticalAlign=middle;resizable=0;points=[];shadow=1;strokeColor=#000000;container=0;" parent="bRMNb42BUXSf3Dn9afHM-92" vertex="1" connectable="0">
          <mxGeometry x="0.0632" y="1" relative="1" as="geometry">
            <mxPoint as="offset" />
          </mxGeometry>
        </mxCell>
        <mxCell id="bRMNb42BUXSf3Dn9afHM-1" value="Mulai" style="whiteSpace=wrap;strokeWidth=2;shadow=1;strokeColor=#000000;container=0;" parent="IJJYvdCSxePvmy5cO1BH-9" vertex="1">
          <mxGeometry x="549.5" width="98" height="49" as="geometry" />
        </mxCell>
        <mxCell id="bRMNb42BUXSf3Dn9afHM-2" value="Registrasi" style="whiteSpace=wrap;strokeWidth=2;shadow=1;strokeColor=#000000;container=0;" parent="IJJYvdCSxePvmy5cO1BH-9" vertex="1">
          <mxGeometry x="534.5" y="99" width="128" height="49" as="geometry" />
        </mxCell>
        <mxCell id="bRMNb42BUXSf3Dn9afHM-61" style="edgeStyle=orthogonalEdgeStyle;rounded=0;orthogonalLoop=1;jettySize=auto;html=1;exitX=0;exitY=1;exitDx=0;exitDy=0;entryX=0.5;entryY=0;entryDx=0;entryDy=0;shadow=1;strokeColor=#000000;" parent="IJJYvdCSxePvmy5cO1BH-9" source="bRMNb42BUXSf3Dn9afHM-3" target="bRMNb42BUXSf3Dn9afHM-4" edge="1">
          <mxGeometry relative="1" as="geometry">
            <Array as="points">
              <mxPoint x="485.5" y="301" />
            </Array>
          </mxGeometry>
        </mxCell>
        <mxCell id="bRMNb42BUXSf3Dn9afHM-62" value="Valid" style="edgeLabel;html=1;align=center;verticalAlign=middle;resizable=0;points=[];shadow=1;strokeColor=#000000;container=0;" parent="bRMNb42BUXSf3Dn9afHM-61" vertex="1" connectable="0">
          <mxGeometry x="0.3757" y="-1" relative="1" as="geometry">
            <mxPoint as="offset" />
          </mxGeometry>
        </mxCell>
        <mxCell id="bRMNb42BUXSf3Dn9afHM-3" value="Validasi Role" style="rhombus;strokeWidth=2;whiteSpace=wrap;shadow=1;strokeColor=#000000;container=0;" parent="IJJYvdCSxePvmy5cO1BH-9" vertex="1">
          <mxGeometry x="528.5" y="197" width="139" height="139" as="geometry" />
        </mxCell>
        <mxCell id="bRMNb42BUXSf3Dn9afHM-66" style="edgeStyle=orthogonalEdgeStyle;rounded=0;orthogonalLoop=1;jettySize=auto;html=1;exitX=0.5;exitY=1;exitDx=0;exitDy=0;entryX=0;entryY=0.5;entryDx=0;entryDy=0;shadow=1;strokeColor=#000000;" parent="IJJYvdCSxePvmy5cO1BH-9" source="bRMNb42BUXSf3Dn9afHM-4" target="bRMNb42BUXSf3Dn9afHM-6" edge="1">
          <mxGeometry relative="1" as="geometry" />
        </mxCell>
        <mxCell id="bRMNb42BUXSf3Dn9afHM-4" value="Tambahkan User" style="whiteSpace=wrap;strokeWidth=2;shadow=1;strokeColor=#000000;container=0;" parent="IJJYvdCSxePvmy5cO1BH-9" vertex="1">
          <mxGeometry x="396.5" y="409" width="178" height="49" as="geometry" />
        </mxCell>
        <mxCell id="bRMNb42BUXSf3Dn9afHM-67" style="edgeStyle=orthogonalEdgeStyle;rounded=0;orthogonalLoop=1;jettySize=auto;html=1;exitX=0.5;exitY=1;exitDx=0;exitDy=0;entryX=1;entryY=0.5;entryDx=0;entryDy=0;shadow=1;strokeColor=#000000;" parent="IJJYvdCSxePvmy5cO1BH-9" source="bRMNb42BUXSf3Dn9afHM-5" target="bRMNb42BUXSf3Dn9afHM-6" edge="1">
          <mxGeometry relative="1" as="geometry" />
        </mxCell>
        <mxCell id="bRMNb42BUXSf3Dn9afHM-5" value="Gagal Registrasi" style="whiteSpace=wrap;strokeWidth=2;shadow=1;strokeColor=#000000;container=0;" parent="IJJYvdCSxePvmy5cO1BH-9" vertex="1">
          <mxGeometry x="624.5" y="409" width="174" height="49" as="geometry" />
        </mxCell>
        <mxCell id="bRMNb42BUXSf3Dn9afHM-6" value="Login" style="whiteSpace=wrap;strokeWidth=2;shadow=1;strokeColor=#000000;container=0;" parent="IJJYvdCSxePvmy5cO1BH-9" vertex="1">
          <mxGeometry x="549.5" y="508" width="98" height="49" as="geometry" />
        </mxCell>
        <mxCell id="bRMNb42BUXSf3Dn9afHM-30" value="" style="curved=1;startArrow=none;endArrow=block;exitX=0.5;exitY=0.99;entryX=0.5;entryY=-0.01;rounded=0;shadow=1;strokeColor=#000000;" parent="IJJYvdCSxePvmy5cO1BH-9" source="bRMNb42BUXSf3Dn9afHM-1" target="bRMNb42BUXSf3Dn9afHM-2" edge="1">
          <mxGeometry relative="1" as="geometry">
            <Array as="points" />
          </mxGeometry>
        </mxCell>
        <mxCell id="bRMNb42BUXSf3Dn9afHM-31" value="" style="curved=1;startArrow=none;endArrow=block;exitX=0.5;exitY=0.99;entryX=0.5;entryY=0;rounded=0;shadow=1;strokeColor=#000000;" parent="IJJYvdCSxePvmy5cO1BH-9" source="bRMNb42BUXSf3Dn9afHM-2" target="bRMNb42BUXSf3Dn9afHM-3" edge="1">
          <mxGeometry relative="1" as="geometry">
            <Array as="points" />
          </mxGeometry>
        </mxCell>
        <mxCell id="bRMNb42BUXSf3Dn9afHM-63" style="edgeStyle=orthogonalEdgeStyle;rounded=0;orthogonalLoop=1;jettySize=auto;html=1;exitX=1;exitY=1;exitDx=0;exitDy=0;entryX=0.542;entryY=-0.058;entryDx=0;entryDy=0;entryPerimeter=0;shadow=1;strokeColor=#000000;" parent="IJJYvdCSxePvmy5cO1BH-9" source="bRMNb42BUXSf3Dn9afHM-3" target="bRMNb42BUXSf3Dn9afHM-5" edge="1">
          <mxGeometry relative="1" as="geometry">
            <Array as="points">
              <mxPoint x="632.5" y="300" />
              <mxPoint x="718.5" y="300" />
            </Array>
          </mxGeometry>
        </mxCell>
        <mxCell id="bRMNb42BUXSf3Dn9afHM-64" value="Tidak Valid" style="edgeLabel;html=1;align=center;verticalAlign=middle;resizable=0;points=[];shadow=1;strokeColor=#000000;container=0;" parent="bRMNb42BUXSf3Dn9afHM-63" vertex="1" connectable="0">
          <mxGeometry x="0.3587" y="1" relative="1" as="geometry">
            <mxPoint as="offset" />
          </mxGeometry>
        </mxCell>
        <mxCell id="IKrKhmfg3OSbElbQN4mf-2" style="edgeStyle=orthogonalEdgeStyle;rounded=0;orthogonalLoop=1;jettySize=auto;html=1;exitX=0.5;exitY=1;exitDx=0;exitDy=0;shadow=1;strokeColor=#000000;" parent="IJJYvdCSxePvmy5cO1BH-9" source="bRMNb42BUXSf3Dn9afHM-13" target="bRMNb42BUXSf3Dn9afHM-26" edge="1">
          <mxGeometry relative="1" as="geometry" />
        </mxCell>
        <mxCell id="bRMNb42BUXSf3Dn9afHM-13" value="Hapus Donasi" style="whiteSpace=wrap;strokeWidth=2;shadow=1;strokeColor=#000000;container=0;" parent="IJJYvdCSxePvmy5cO1BH-9" vertex="1">
          <mxGeometry x="520.5" y="1107" width="154" height="49" as="geometry" />
        </mxCell>
        <mxCell id="bRMNb42BUXSf3Dn9afHM-26" value="Input Nomor Donasi" style="whiteSpace=wrap;strokeWidth=2;shadow=1;strokeColor=#000000;container=0;" parent="IJJYvdCSxePvmy5cO1BH-9" vertex="1">
          <mxGeometry x="497.5" y="1220" width="200" height="49" as="geometry" />
        </mxCell>
        <mxCell id="bRMNb42BUXSf3Dn9afHM-23" value="Donasi Tersedia?" style="rhombus;strokeWidth=2;whiteSpace=wrap;shadow=1;strokeColor=#000000;container=0;" parent="IJJYvdCSxePvmy5cO1BH-9" vertex="1">
          <mxGeometry x="296" y="1300" width="165" height="165" as="geometry" />
        </mxCell>
      </root>
    </mxGraphModel>
  </diagram>
</mxfile>
